{
    "asset" : {
        "generator" : "Khronos glTF Blender I/O v3.3.27",
        "version" : "2.0"
    },
    "scene" : 0,
    "scenes" : [
        {
            "name" : "MREs",
            "nodes" : [
                4
            ]
        }
    ],
    "nodes" : [
        {
            "name" : "door",
            "rotation" : [
                0.6972329020500183,
                -0.11775537580251694,
                0.11775505542755127,
                0.6972329020500183
            ],
            "scale" : [
                1,
                0.9999999403953552,
                1
            ],
            "translation" : [
                -0.44763776659965515,
                1.0781739950180054,
                0.47493842244148254
            ]
        },
        {
            "children" : [
                0
            ],
            "name" : "Master"
        },
        {
            "mesh" : 0,
            "name" : "LabShower",
            "skin" : 0
        },
        {
            "mesh" : 1,
            "name" : "LabShowerDoor",
            "skin" : 0
        },
        {
            "children" : [
                2,
                3,
                1
            ],
            "name" : "Armature.001"
        }
    ],
    "animations" : [
        {
            "channels" : [
                {
                    "sampler" : 0,
                    "target" : {
                        "node" : 1,
                        "path" : "translation"
                    }
                },
                {
                    "sampler" : 1,
                    "target" : {
                        "node" : 1,
                        "path" : "rotation"
                    }
                },
                {
                    "sampler" : 2,
                    "target" : {
                        "node" : 1,
                        "path" : "scale"
                    }
                },
                {
                    "sampler" : 3,
                    "target" : {
                        "node" : 0,
                        "path" : "translation"
                    }
                },
                {
                    "sampler" : 4,
                    "target" : {
                        "node" : 0,
                        "path" : "rotation"
                    }
                },
                {
                    "sampler" : 5,
                    "target" : {
                        "node" : 0,
                        "path" : "scale"
                    }
                }
            ],
            "name" : "LabShowerOpen",
            "samplers" : [
                {
                    "input" : 13,
                    "interpolation" : "LINEAR",
                    "output" : 14
                },
                {
                    "input" : 13,
                    "interpolation" : "LINEAR",
                    "output" : 15
                },
                {
                    "input" : 13,
                    "interpolation" : "LINEAR",
                    "output" : 16
                },
                {
                    "input" : 13,
                    "interpolation" : "LINEAR",
                    "output" : 17
                },
                {
                    "input" : 13,
                    "interpolation" : "LINEAR",
                    "output" : 18
                },
                {
                    "input" : 13,
                    "interpolation" : "LINEAR",
                    "output" : 19
                }
            ]
        }
    ],
    "materials" : [
        {
            "doubleSided" : true,
            "name" : "LabShower",
            "normalTexture" : {
                "index" : 0
            },
            "pbrMetallicRoughness" : {
                "baseColorTexture" : {
                    "index" : 1
                },
                "metallicRoughnessTexture" : {
                    "index" : 2
                },
                "roughnessFactor" : 0.5
            }
        },
        {
            "alphaCutoff" : 0.3927444815635681,
            "alphaMode" : "MASK",
            "doubleSided" : true,
            "name" : "LabShower_Door",
            "pbrMetallicRoughness" : {
                "baseColorFactor" : [
                    0.34238144755363464,
                    0.34238144755363464,
                    0.34238144755363464,
                    1
                ],
                "metallicFactor" : 0,
                "roughnessFactor" : 0.15614035725593567
            }
        }
    ],
    "meshes" : [
        {
            "name" : "Cube.011",
            "primitives" : [
                {
                    "attributes" : {
                        "POSITION" : 0,
                        "NORMAL" : 1,
                        "TEXCOORD_0" : 2,
                        "JOINTS_0" : 3,
                        "WEIGHTS_0" : 4
                    },
                    "indices" : 5,
                    "material" : 0
                }
            ]
        },
        {
            "name" : "Cube.015",
            "primitives" : [
                {
                    "attributes" : {
                        "POSITION" : 7,
                        "NORMAL" : 8,
                        "TEXCOORD_0" : 9,
                        "JOINTS_0" : 10,
                        "WEIGHTS_0" : 11
                    },
                    "indices" : 12,
                    "material" : 1
                }
            ]
        }
    ],
    "textures" : [
        {
            "sampler" : 0,
            "source" : 0
        },
        {
            "sampler" : 0,
            "source" : 1
        },
        {
            "sampler" : 0,
            "source" : 2
        }
    ],
    "images" : [
        {
            "bufferView" : 6,
            "mimeType" : "image/png",
            "name" : "LabShower_Normal"
        },
        {
            "bufferView" : 7,
            "mimeType" : "image/png",
            "name" : "LabShower_Albedo_AO"
        },
        {
            "bufferView" : 8,
            "mimeType" : "image/png",
            "name" : "LabShower_MetallicSmoothness"
        }
    ],
    "skins" : [
        {
            "inverseBindMatrices" : 6,
            "joints" : [
                1,
                0
            ],
            "name" : "Armature.001"
        }
    ],
    "accessors" : [
        {
            "bufferView" : 0,
            "componentType" : 5126,
            "count" : 853,
            "max" : [
                0.5671577453613281,
                2.1514172554016113,
                0.523296058177948
            ],
            "min" : [
                -0.488958477973938,
                0,
                -0.488958477973938
            ],
            "type" : "VEC3"
        },
        {
            "bufferView" : 1,
            "componentType" : 5126,
            "count" : 853,
            "type" : "VEC3"
        },
        {
            "bufferView" : 2,
            "componentType" : 5126,
            "count" : 853,
            "type" : "VEC2"
        },
        {
            "bufferView" : 3,
            "componentType" : 5121,
            "count" : 853,
            "type" : "VEC4"
        },
        {
            "bufferView" : 4,
            "componentType" : 5126,
            "count" : 853,
            "type" : "VEC4"
        },
        {
            "bufferView" : 5,
            "componentType" : 5123,
            "count" : 3156,
            "type" : "SCALAR"
        },
        {
            "bufferView" : 9,
            "componentType" : 5126,
            "count" : 2,
            "type" : "MAT4"
        },
        {
            "bufferView" : 10,
            "componentType" : 5126,
            "count" : 112,
            "max" : [
                -0.4427623450756073,
                1.9148321151733398,
                1.1398203372955322
            ],
            "min" : [
                -1.056966781616211,
                0.24151617288589478,
                0.4704761207103729
            ],
            "type" : "VEC3"
        },
        {
            "bufferView" : 11,
            "componentType" : 5126,
            "count" : 112,
            "type" : "VEC3"
        },
        {
            "bufferView" : 12,
            "componentType" : 5126,
            "count" : 112,
            "type" : "VEC2"
        },
        {
            "bufferView" : 13,
            "componentType" : 5121,
            "count" : 112,
            "type" : "VEC4"
        },
        {
            "bufferView" : 14,
            "componentType" : 5126,
            "count" : 112,
            "type" : "VEC4"
        },
        {
            "bufferView" : 15,
            "componentType" : 5123,
            "count" : 240,
            "type" : "SCALAR"
        },
        {
            "bufferView" : 16,
            "componentType" : 5126,
            "count" : 220,
            "max" : [
                7.333333333333333
            ],
            "min" : [
                0.03333333333333333
            ],
            "type" : "SCALAR"
        },
        {
            "bufferView" : 17,
            "componentType" : 5126,
            "count" : 220,
            "type" : "VEC3"
        },
        {
            "bufferView" : 18,
            "componentType" : 5126,
            "count" : 220,
            "type" : "VEC4"
        },
        {
            "bufferView" : 19,
            "componentType" : 5126,
            "count" : 220,
            "type" : "VEC3"
        },
        {
            "bufferView" : 20,
            "componentType" : 5126,
            "count" : 220,
            "type" : "VEC3"
        },
        {
            "bufferView" : 21,
            "componentType" : 5126,
            "count" : 220,
            "type" : "VEC4"
        },
        {
            "bufferView" : 22,
            "componentType" : 5126,
            "count" : 220,
            "type" : "VEC3"
        }
    ],
    "bufferViews" : [
        {
            "buffer" : 0,
            "byteLength" : 10236,
            "byteOffset" : 0,
            "target" : 34962
        },
        {
            "buffer" : 0,
            "byteLength" : 10236,
            "byteOffset" : 10236,
            "target" : 34962
        },
        {
            "buffer" : 0,
            "byteLength" : 6824,
            "byteOffset" : 20472,
            "target" : 34962
        },
        {
            "buffer" : 0,
            "byteLength" : 3412,
            "byteOffset" : 27296,
            "target" : 34962
        },
        {
            "buffer" : 0,
            "byteLength" : 13648,
            "byteOffset" : 30708,
            "target" : 34962
        },
        {
            "buffer" : 0,
            "byteLength" : 6312,
            "byteOffset" : 44356,
            "target" : 34963
        },
        {
            "buffer" : 0,
            "byteLength" : 47998,
            "byteOffset" : 50668
        },
        {
            "buffer" : 0,
            "byteLength" : 1684382,
            "byteOffset" : 98668
        },
        {
            "buffer" : 0,
            "byteLength" : 69768,
            "byteOffset" : 1783052
        },
        {
            "buffer" : 0,
            "byteLength" : 128,
            "byteOffset" : 1852820
        },
        {
            "buffer" : 0,
            "byteLength" : 1344,
            "byteOffset" : 1852948,
            "target" : 34962
        },
        {
            "buffer" : 0,
            "byteLength" : 1344,
            "byteOffset" : 1854292,
            "target" : 34962
        },
        {
            "buffer" : 0,
            "byteLength" : 896,
            "byteOffset" : 1855636,
            "target" : 34962
        },
        {
            "buffer" : 0,
            "byteLength" : 448,
            "byteOffset" : 1856532,
            "target" : 34962
        },
        {
            "buffer" : 0,
            "byteLength" : 1792,
            "byteOffset" : 1856980,
            "target" : 34962
        },
        {
            "buffer" : 0,
            "byteLength" : 480,
            "byteOffset" : 1858772,
            "target" : 34963
        },
        {
            "buffer" : 0,
            "byteLength" : 880,
            "byteOffset" : 1859252
        },
        {
            "buffer" : 0,
            "byteLength" : 2640,
            "byteOffset" : 1860132
        },
        {
            "buffer" : 0,
            "byteLength" : 3520,
            "byteOffset" : 1862772
        },
        {
            "buffer" : 0,
            "byteLength" : 2640,
            "byteOffset" : 1866292
        },
        {
            "buffer" : 0,
            "byteLength" : 2640,
            "byteOffset" : 1868932
        },
        {
            "buffer" : 0,
            "byteLength" : 3520,
            "byteOffset" : 1871572
        },
        {
            "buffer" : 0,
            "byteLength" : 2640,
            "byteOffset" : 1875092
        }
    ],
    "samplers" : [
        {
            "magFilter" : 9729,
            "minFilter" : 9987
        }
    ],
    "buffers" : [
        {
            "byteLength" : 1877732,
            "uri" : "data:application/octet-stream;base64,"
        }
    ]
}
