{
    "asset" : {
        "generator" : "Khronos glTF Blender I/O v3.3.27",
        "version" : "2.0"
    },
    "extensionsUsed" : [
        "KHR_materials_specular",
        "KHR_materials_ior"
    ],
    "scene" : 0,
    "scenes" : [
        {
            "name" : "MREs",
            "nodes" : [
                6
            ]
        }
    ],
    "nodes" : [
        {
            "name" : "Slide 1"
        },
        {
            "name" : "Slide 2",
            "translation" : [
                1.0548402070999146,
                0,
                0
            ]
        },
        {
            "name" : "microscope"
        },
        {
            "mesh" : 0,
            "name" : "micro",
            "skin" : 0
        },
        {
            "mesh" : 1,
            "name" : "Myocardium high power",
            "skin" : 0
        },
        {
            "mesh" : 2,
            "name" : "Myocardium high power.001",
            "skin" : 0
        },
        {
            "children" : [
                3,
                4,
                5,
                0,
                1,
                2
            ],
            "name" : "Armature_mircoscopeSlides"
        }
    ],
    "animations" : [
        {
            "channels" : [
                {
                    "sampler" : 0,
                    "target" : {
                        "node" : 0,
                        "path" : "translation"
                    }
                },
                {
                    "sampler" : 1,
                    "target" : {
                        "node" : 0,
                        "path" : "rotation"
                    }
                },
                {
                    "sampler" : 2,
                    "target" : {
                        "node" : 0,
                        "path" : "scale"
                    }
                },
                {
                    "sampler" : 3,
                    "target" : {
                        "node" : 1,
                        "path" : "translation"
                    }
                },
                {
                    "sampler" : 4,
                    "target" : {
                        "node" : 1,
                        "path" : "rotation"
                    }
                },
                {
                    "sampler" : 5,
                    "target" : {
                        "node" : 1,
                        "path" : "scale"
                    }
                },
                {
                    "sampler" : 6,
                    "target" : {
                        "node" : 2,
                        "path" : "translation"
                    }
                },
                {
                    "sampler" : 7,
                    "target" : {
                        "node" : 2,
                        "path" : "rotation"
                    }
                },
                {
                    "sampler" : 8,
                    "target" : {
                        "node" : 2,
                        "path" : "scale"
                    }
                }
            ],
            "name" : "Microscope_Slides",
            "samplers" : [
                {
                    "input" : 24,
                    "interpolation" : "LINEAR",
                    "output" : 25
                },
                {
                    "input" : 24,
                    "interpolation" : "LINEAR",
                    "output" : 26
                },
                {
                    "input" : 24,
                    "interpolation" : "LINEAR",
                    "output" : 27
                },
                {
                    "input" : 24,
                    "interpolation" : "LINEAR",
                    "output" : 28
                },
                {
                    "input" : 24,
                    "interpolation" : "LINEAR",
                    "output" : 29
                },
                {
                    "input" : 24,
                    "interpolation" : "LINEAR",
                    "output" : 30
                },
                {
                    "input" : 24,
                    "interpolation" : "LINEAR",
                    "output" : 31
                },
                {
                    "input" : 24,
                    "interpolation" : "LINEAR",
                    "output" : 32
                },
                {
                    "input" : 24,
                    "interpolation" : "LINEAR",
                    "output" : 33
                }
            ]
        }
    ],
    "materials" : [
        {
            "doubleSided" : true,
            "extensions" : {
                "KHR_materials_specular" : {
                    "specularColorFactor" : [
                        0,
                        0,
                        0
                    ]
                },
                "KHR_materials_ior" : {
                    "ior" : 1.4500000476837158
                }
            },
            "name" : "microscope",
            "pbrMetallicRoughness" : {
                "baseColorTexture" : {
                    "index" : 0
                },
                "roughnessFactor" : 0.858578622341156
            }
        },
        {
            "doubleSided" : true,
            "extensions" : {
                "KHR_materials_specular" : {
                    "specularColorFactor" : [
                        0,
                        0,
                        0
                    ]
                },
                "KHR_materials_ior" : {
                    "ior" : 1.4500000476837158
                }
            },
            "name" : "mirror",
            "pbrMetallicRoughness" : {
                "baseColorFactor" : [
                    0.7960785031318665,
                    0.8392157554626465,
                    0.8392157554626465,
                    1
                ],
                "roughnessFactor" : 0.858578622341156
            }
        },
        {
            "doubleSided" : true,
            "name" : "Myocardium high power",
            "pbrMetallicRoughness" : {
                "baseColorTexture" : {
                    "index" : 1
                },
                "metallicFactor" : 0
            }
        },
        {
            "doubleSided" : true,
            "name" : "Myocardium low power",
            "pbrMetallicRoughness" : {
                "baseColorTexture" : {
                    "index" : 2
                },
                "metallicFactor" : 0
            }
        }
    ],
    "meshes" : [
        {
            "name" : "Mesh",
            "primitives" : [
                {
                    "attributes" : {
                        "POSITION" : 0,
                        "NORMAL" : 1,
                        "TEXCOORD_0" : 2,
                        "JOINTS_0" : 3,
                        "WEIGHTS_0" : 4
                    },
                    "indices" : 5,
                    "material" : 0
                },
                {
                    "attributes" : {
                        "POSITION" : 6,
                        "NORMAL" : 7,
                        "TEXCOORD_0" : 8,
                        "JOINTS_0" : 9,
                        "WEIGHTS_0" : 10
                    },
                    "indices" : 11,
                    "material" : 1
                }
            ]
        },
        {
            "name" : "Myocardium high power",
            "primitives" : [
                {
                    "attributes" : {
                        "POSITION" : 13,
                        "NORMAL" : 14,
                        "TEXCOORD_0" : 15,
                        "JOINTS_0" : 16,
                        "WEIGHTS_0" : 17
                    },
                    "indices" : 18,
                    "material" : 2
                }
            ]
        },
        {
            "name" : "Myocardium high power.002",
            "primitives" : [
                {
                    "attributes" : {
                        "POSITION" : 19,
                        "NORMAL" : 20,
                        "TEXCOORD_0" : 21,
                        "JOINTS_0" : 22,
                        "WEIGHTS_0" : 23
                    },
                    "indices" : 18,
                    "material" : 3
                }
            ]
        }
    ],
    "textures" : [
        {
            "sampler" : 0,
            "source" : 0
        },
        {
            "sampler" : 1,
            "source" : 1
        },
        {
            "sampler" : 1,
            "source" : 2
        }
    ],
    "images" : [
        {
            "bufferView" : 6,
            "mimeType" : "image/png",
            "name" : "microscope"
        },
        {
            "bufferView" : 20,
            "mimeType" : "image/jpeg",
            "name" : "Myocardium high power"
        },
        {
            "bufferView" : 26,
            "mimeType" : "image/jpeg",
            "name" : "microscopeview"
        }
    ],
    "skins" : [
        {
            "inverseBindMatrices" : 12,
            "joints" : [
                0,
                1,
                2
            ],
            "name" : "Armature_mircoscopeSlides"
        }
    ],
    "accessors" : [
        {
            "bufferView" : 0,
            "componentType" : 5126,
            "count" : 6479,
            "max" : [
                0.06287406384944916,
                0.19881057739257812,
                0.09376194328069687
            ],
            "min" : [
                -0.05955362319946289,
                -0.0018446453614160419,
                -0.07823759317398071
            ],
            "type" : "VEC3"
        },
        {
            "bufferView" : 1,
            "componentType" : 5126,
            "count" : 6479,
            "type" : "VEC3"
        },
        {
            "bufferView" : 2,
            "componentType" : 5126,
            "count" : 6479,
            "type" : "VEC2"
        },
        {
            "bufferView" : 3,
            "componentType" : 5121,
            "count" : 6479,
            "type" : "VEC4"
        },
        {
            "bufferView" : 4,
            "componentType" : 5126,
            "count" : 6479,
            "type" : "VEC4"
        },
        {
            "bufferView" : 5,
            "componentType" : 5123,
            "count" : 23394,
            "type" : "SCALAR"
        },
        {
            "bufferView" : 7,
            "componentType" : 5126,
            "count" : 18,
            "max" : [
                0.015161077491939068,
                0.04382304847240448,
                -0.006447603460401297
            ],
            "min" : [
                -0.013827833347022533,
                0.02926485240459442,
                -0.03100520744919777
            ],
            "type" : "VEC3"
        },
        {
            "bufferView" : 8,
            "componentType" : 5126,
            "count" : 18,
            "type" : "VEC3"
        },
        {
            "bufferView" : 9,
            "componentType" : 5126,
            "count" : 18,
            "type" : "VEC2"
        },
        {
            "bufferView" : 10,
            "componentType" : 5121,
            "count" : 18,
            "type" : "VEC4"
        },
        {
            "bufferView" : 11,
            "componentType" : 5126,
            "count" : 18,
            "type" : "VEC4"
        },
        {
            "bufferView" : 12,
            "componentType" : 5123,
            "count" : 48,
            "type" : "SCALAR"
        },
        {
            "bufferView" : 13,
            "componentType" : 5126,
            "count" : 3,
            "type" : "MAT4"
        },
        {
            "bufferView" : 14,
            "componentType" : 5126,
            "count" : 4,
            "max" : [
                0.5,
                0,
                0.5
            ],
            "min" : [
                -0.5,
                0,
                -0.5
            ],
            "type" : "VEC3"
        },
        {
            "bufferView" : 15,
            "componentType" : 5126,
            "count" : 4,
            "type" : "VEC3"
        },
        {
            "bufferView" : 16,
            "componentType" : 5126,
            "count" : 4,
            "type" : "VEC2"
        },
        {
            "bufferView" : 17,
            "componentType" : 5121,
            "count" : 4,
            "type" : "VEC4"
        },
        {
            "bufferView" : 18,
            "componentType" : 5126,
            "count" : 4,
            "type" : "VEC4"
        },
        {
            "bufferView" : 19,
            "componentType" : 5123,
            "count" : 6,
            "type" : "SCALAR"
        },
        {
            "bufferView" : 21,
            "componentType" : 5126,
            "count" : 4,
            "max" : [
                1.5548402070999146,
                0,
                0.5
            ],
            "min" : [
                0.5548402070999146,
                0,
                -0.5
            ],
            "type" : "VEC3"
        },
        {
            "bufferView" : 22,
            "componentType" : 5126,
            "count" : 4,
            "type" : "VEC3"
        },
        {
            "bufferView" : 23,
            "componentType" : 5126,
            "count" : 4,
            "type" : "VEC2"
        },
        {
            "bufferView" : 24,
            "componentType" : 5121,
            "count" : 4,
            "type" : "VEC4"
        },
        {
            "bufferView" : 25,
            "componentType" : 5126,
            "count" : 4,
            "type" : "VEC4"
        },
        {
            "bufferView" : 27,
            "componentType" : 5126,
            "count" : 204,
            "max" : [
                8.5
            ],
            "min" : [
                0.041666666666666664
            ],
            "type" : "SCALAR"
        },
        {
            "bufferView" : 28,
            "componentType" : 5126,
            "count" : 204,
            "type" : "VEC3"
        },
        {
            "bufferView" : 29,
            "componentType" : 5126,
            "count" : 204,
            "type" : "VEC4"
        },
        {
            "bufferView" : 30,
            "componentType" : 5126,
            "count" : 204,
            "type" : "VEC3"
        },
        {
            "bufferView" : 31,
            "componentType" : 5126,
            "count" : 204,
            "type" : "VEC3"
        },
        {
            "bufferView" : 32,
            "componentType" : 5126,
            "count" : 204,
            "type" : "VEC4"
        },
        {
            "bufferView" : 33,
            "componentType" : 5126,
            "count" : 204,
            "type" : "VEC3"
        },
        {
            "bufferView" : 34,
            "componentType" : 5126,
            "count" : 204,
            "type" : "VEC3"
        },
        {
            "bufferView" : 35,
            "componentType" : 5126,
            "count" : 204,
            "type" : "VEC4"
        },
        {
            "bufferView" : 36,
            "componentType" : 5126,
            "count" : 204,
            "type" : "VEC3"
        }
    ],
    "bufferViews" : [
        {
            "buffer" : 0,
            "byteLength" : 77748,
            "byteOffset" : 0,
            "target" : 34962
        },
        {
            "buffer" : 0,
            "byteLength" : 77748,
            "byteOffset" : 77748,
            "target" : 34962
        },
        {
            "buffer" : 0,
            "byteLength" : 51832,
            "byteOffset" : 155496,
            "target" : 34962
        },
        {
            "buffer" : 0,
            "byteLength" : 25916,
            "byteOffset" : 207328,
            "target" : 34962
        },
        {
            "buffer" : 0,
            "byteLength" : 103664,
            "byteOffset" : 233244,
            "target" : 34962
        },
        {
            "buffer" : 0,
            "byteLength" : 46788,
            "byteOffset" : 336908,
            "target" : 34963
        },
        {
            "buffer" : 0,
            "byteLength" : 287462,
            "byteOffset" : 383696
        },
        {
            "buffer" : 0,
            "byteLength" : 216,
            "byteOffset" : 671160,
            "target" : 34962
        },
        {
            "buffer" : 0,
            "byteLength" : 216,
            "byteOffset" : 671376,
            "target" : 34962
        },
        {
            "buffer" : 0,
            "byteLength" : 144,
            "byteOffset" : 671592,
            "target" : 34962
        },
        {
            "buffer" : 0,
            "byteLength" : 72,
            "byteOffset" : 671736,
            "target" : 34962
        },
        {
            "buffer" : 0,
            "byteLength" : 288,
            "byteOffset" : 671808,
            "target" : 34962
        },
        {
            "buffer" : 0,
            "byteLength" : 96,
            "byteOffset" : 672096,
            "target" : 34963
        },
        {
            "buffer" : 0,
            "byteLength" : 192,
            "byteOffset" : 672192
        },
        {
            "buffer" : 0,
            "byteLength" : 48,
            "byteOffset" : 672384,
            "target" : 34962
        },
        {
            "buffer" : 0,
            "byteLength" : 48,
            "byteOffset" : 672432,
            "target" : 34962
        },
        {
            "buffer" : 0,
            "byteLength" : 32,
            "byteOffset" : 672480,
            "target" : 34962
        },
        {
            "buffer" : 0,
            "byteLength" : 16,
            "byteOffset" : 672512,
            "target" : 34962
        },
        {
            "buffer" : 0,
            "byteLength" : 64,
            "byteOffset" : 672528,
            "target" : 34962
        },
        {
            "buffer" : 0,
            "byteLength" : 12,
            "byteOffset" : 672592,
            "target" : 34963
        },
        {
            "buffer" : 0,
            "byteLength" : 1297802,
            "byteOffset" : 672604
        },
        {
            "buffer" : 0,
            "byteLength" : 48,
            "byteOffset" : 1970408,
            "target" : 34962
        },
        {
            "buffer" : 0,
            "byteLength" : 48,
            "byteOffset" : 1970456,
            "target" : 34962
        },
        {
            "buffer" : 0,
            "byteLength" : 32,
            "byteOffset" : 1970504,
            "target" : 34962
        },
        {
            "buffer" : 0,
            "byteLength" : 16,
            "byteOffset" : 1970536,
            "target" : 34962
        },
        {
            "buffer" : 0,
            "byteLength" : 64,
            "byteOffset" : 1970552,
            "target" : 34962
        },
        {
            "buffer" : 0,
            "byteLength" : 305465,
            "byteOffset" : 1970616
        },
        {
            "buffer" : 0,
            "byteLength" : 816,
            "byteOffset" : 2276084
        },
        {
            "buffer" : 0,
            "byteLength" : 2448,
            "byteOffset" : 2276900
        },
        {
            "buffer" : 0,
            "byteLength" : 3264,
            "byteOffset" : 2279348
        },
        {
            "buffer" : 0,
            "byteLength" : 2448,
            "byteOffset" : 2282612
        },
        {
            "buffer" : 0,
            "byteLength" : 2448,
            "byteOffset" : 2285060
        },
        {
            "buffer" : 0,
            "byteLength" : 3264,
            "byteOffset" : 2287508
        },
        {
            "buffer" : 0,
            "byteLength" : 2448,
            "byteOffset" : 2290772
        },
        {
            "buffer" : 0,
            "byteLength" : 2448,
            "byteOffset" : 2293220
        },
        {
            "buffer" : 0,
            "byteLength" : 3264,
            "byteOffset" : 2295668
        },
        {
            "buffer" : 0,
            "byteLength" : 2448,
            "byteOffset" : 2298932
        }
    ],
    "samplers" : [
        {
            "magFilter" : 9729,
            "minFilter" : 9987
        },
        {
            "magFilter" : 9729,
            "minFilter" : 9987,
            "wrapS" : 33071,
            "wrapT" : 33071
        }
    ],
    "buffers" : [
        {
            "byteLength" : 2301380,
            "uri" : "data:application/octet-stream;base64,"
        }
    ]
}
